<mxfile host="www.draw.io" modified="2019-11-04T04:01:06.234Z" agent="Mozilla/5.0 (Macintosh; Intel Mac OS X 10_14_6) AppleWebKit/537.36 (KHTML, like Gecko) Chrome/78.0.3904.70 Safari/537.36" etag="t58G1w4GZpl87jR6u7zb" version="12.1.9" type="github" pages="1">
  <diagram id="6a731a19-8d31-9384-78a2-239565b7b9f0" name="Page-1">
    <mxGraphModel dx="786" dy="491" grid="1" gridSize="10" guides="1" tooltips="1" connect="1" arrows="1" fold="1" page="1" pageScale="1" pageWidth="1169" pageHeight="827" background="#ffffff" math="0" shadow="0">
      <root>
        <mxCell id="0"/>
        <mxCell id="1" parent="0"/>
        <mxCell id="2" value="任务文件上传" style="shape=mxgraph.flowchart.terminator;fillColor=#FFFFFF;strokeColor=#000000;strokeWidth=2;gradientColor=none;gradientDirection=north;fontColor=#001933;fontStyle=0;html=1;" parent="1" vertex="1">
          <mxGeometry x="260" y="60" width="120" height="30" as="geometry"/>
        </mxCell>
        <mxCell id="7" style="fontColor=#001933;fontStyle=1;strokeColor=#003366;strokeWidth=1;html=1;" parent="1" source="2" edge="1">
          <mxGeometry relative="1" as="geometry">
            <mxPoint x="320" y="130" as="targetPoint"/>
          </mxGeometry>
        </mxCell>
        <mxCell id="8" style="fontColor=#001933;fontStyle=1;strokeColor=#003366;strokeWidth=1;html=1;exitX=0.5;exitY=1;exitDx=0;exitDy=0;" parent="1" source="zEvsNkEJzdcjlOM2abnc-55" edge="1">
          <mxGeometry relative="1" as="geometry">
            <mxPoint x="320" y="210" as="sourcePoint"/>
            <mxPoint x="320" y="250" as="targetPoint"/>
          </mxGeometry>
        </mxCell>
        <mxCell id="11" value="yes" style="text;fontColor=#001933;fontStyle=0;html=1;strokeColor=none;gradientColor=none;fillColor=none;strokeWidth=2;" parent="1" vertex="1">
          <mxGeometry x="330" y="570" width="40" height="26" as="geometry"/>
        </mxCell>
        <mxCell id="12" value="" style="edgeStyle=elbowEdgeStyle;elbow=horizontal;fontColor=#001933;fontStyle=1;strokeColor=#003366;strokeWidth=1;html=1;" parent="1" source="zEvsNkEJzdcjlOM2abnc-59" edge="1">
          <mxGeometry x="-1" y="63" width="100" height="100" as="geometry">
            <mxPoint x="319" y="510" as="sourcePoint"/>
            <mxPoint x="319" y="573" as="targetPoint"/>
          </mxGeometry>
        </mxCell>
        <mxCell id="14" value="no" style="text;fontColor=#001933;fontStyle=0;html=1;strokeColor=none;gradientColor=none;fillColor=none;strokeWidth=2;align=center;" parent="1" vertex="1">
          <mxGeometry x="385" y="500" width="40" height="26" as="geometry"/>
        </mxCell>
        <mxCell id="21" value="" style="edgeStyle=elbowEdgeStyle;elbow=horizontal;fontColor=#001933;fontStyle=1;strokeColor=#003366;strokeWidth=1;html=1;" parent="1" edge="1">
          <mxGeometry y="-10" width="100" height="100" as="geometry">
            <mxPoint x="321" y="710" as="sourcePoint"/>
            <mxPoint x="321" y="710" as="targetPoint"/>
            <Array as="points">
              <mxPoint x="321" y="620"/>
            </Array>
          </mxGeometry>
        </mxCell>
        <mxCell id="40" value="完成" style="shape=mxgraph.flowchart.terminator;fillColor=#FFFFFF;strokeColor=#000000;strokeWidth=2;gradientColor=none;gradientDirection=north;fontColor=#001933;fontStyle=0;html=1;" parent="1" vertex="1">
          <mxGeometry x="260" y="880" width="120" height="30" as="geometry"/>
        </mxCell>
        <mxCell id="zEvsNkEJzdcjlOM2abnc-55" value="以五个文件为单位生成任务包" style="rounded=1;whiteSpace=wrap;html=1;" vertex="1" parent="1">
          <mxGeometry x="260" y="130" width="120" height="60" as="geometry"/>
        </mxCell>
        <mxCell id="zEvsNkEJzdcjlOM2abnc-58" style="edgeStyle=orthogonalEdgeStyle;rounded=0;orthogonalLoop=1;jettySize=auto;html=1;exitX=0.5;exitY=1;exitDx=0;exitDy=0;entryX=0.5;entryY=0;entryDx=0;entryDy=0;" edge="1" parent="1" source="zEvsNkEJzdcjlOM2abnc-56" target="zEvsNkEJzdcjlOM2abnc-57">
          <mxGeometry relative="1" as="geometry"/>
        </mxCell>
        <mxCell id="zEvsNkEJzdcjlOM2abnc-56" value="标注员领取任务" style="rounded=1;whiteSpace=wrap;html=1;" vertex="1" parent="1">
          <mxGeometry x="261" y="220" width="120" height="60" as="geometry"/>
        </mxCell>
        <mxCell id="zEvsNkEJzdcjlOM2abnc-68" style="edgeStyle=orthogonalEdgeStyle;rounded=0;orthogonalLoop=1;jettySize=auto;html=1;exitX=0.5;exitY=1;exitDx=0;exitDy=0;entryX=0.5;entryY=0;entryDx=0;entryDy=0;" edge="1" parent="1" source="zEvsNkEJzdcjlOM2abnc-57" target="zEvsNkEJzdcjlOM2abnc-66">
          <mxGeometry relative="1" as="geometry"/>
        </mxCell>
        <mxCell id="zEvsNkEJzdcjlOM2abnc-57" value="标注完成生成审核包" style="rounded=1;whiteSpace=wrap;html=1;" vertex="1" parent="1">
          <mxGeometry x="261" y="310" width="120" height="60" as="geometry"/>
        </mxCell>
        <mxCell id="zEvsNkEJzdcjlOM2abnc-63" style="edgeStyle=orthogonalEdgeStyle;rounded=0;orthogonalLoop=1;jettySize=auto;html=1;exitX=0;exitY=0.5;exitDx=0;exitDy=0;entryX=1;entryY=0.5;entryDx=0;entryDy=0;" edge="1" parent="1" source="zEvsNkEJzdcjlOM2abnc-61" target="zEvsNkEJzdcjlOM2abnc-56">
          <mxGeometry relative="1" as="geometry"/>
        </mxCell>
        <mxCell id="zEvsNkEJzdcjlOM2abnc-61" value="不合格的标注任务" style="rounded=1;whiteSpace=wrap;html=1;" vertex="1" parent="1">
          <mxGeometry x="421" y="130" width="120" height="60" as="geometry"/>
        </mxCell>
        <mxCell id="zEvsNkEJzdcjlOM2abnc-64" value="审核完成生成终审包" style="rounded=1;whiteSpace=wrap;html=1;" vertex="1" parent="1">
          <mxGeometry x="260" y="603" width="120" height="60" as="geometry"/>
        </mxCell>
        <mxCell id="zEvsNkEJzdcjlOM2abnc-80" style="edgeStyle=orthogonalEdgeStyle;rounded=0;orthogonalLoop=1;jettySize=auto;html=1;exitX=0.5;exitY=1;exitDx=0;exitDy=0;" edge="1" parent="1" source="zEvsNkEJzdcjlOM2abnc-65" target="40">
          <mxGeometry relative="1" as="geometry"/>
        </mxCell>
        <mxCell id="zEvsNkEJzdcjlOM2abnc-81" style="edgeStyle=orthogonalEdgeStyle;rounded=0;orthogonalLoop=1;jettySize=auto;html=1;exitX=0;exitY=0.5;exitDx=0;exitDy=0;entryX=0;entryY=0.5;entryDx=0;entryDy=0;" edge="1" parent="1" source="zEvsNkEJzdcjlOM2abnc-65" target="zEvsNkEJzdcjlOM2abnc-77">
          <mxGeometry relative="1" as="geometry"/>
        </mxCell>
        <mxCell id="zEvsNkEJzdcjlOM2abnc-65" value="是否合格？" style="rhombus;whiteSpace=wrap;html=1;" vertex="1" parent="1">
          <mxGeometry x="270" y="770" width="100" height="80" as="geometry"/>
        </mxCell>
        <mxCell id="zEvsNkEJzdcjlOM2abnc-70" style="edgeStyle=orthogonalEdgeStyle;rounded=0;orthogonalLoop=1;jettySize=auto;html=1;exitX=0.5;exitY=1;exitDx=0;exitDy=0;entryX=0.5;entryY=0;entryDx=0;entryDy=0;" edge="1" parent="1" source="zEvsNkEJzdcjlOM2abnc-66" target="zEvsNkEJzdcjlOM2abnc-59">
          <mxGeometry relative="1" as="geometry"/>
        </mxCell>
        <mxCell id="zEvsNkEJzdcjlOM2abnc-66" value="审核员领取任务" style="rounded=1;whiteSpace=wrap;html=1;" vertex="1" parent="1">
          <mxGeometry x="261" y="400" width="120" height="60" as="geometry"/>
        </mxCell>
        <mxCell id="zEvsNkEJzdcjlOM2abnc-71" style="edgeStyle=orthogonalEdgeStyle;rounded=0;orthogonalLoop=1;jettySize=auto;html=1;exitX=1;exitY=0.5;exitDx=0;exitDy=0;entryX=1;entryY=0.5;entryDx=0;entryDy=0;" edge="1" parent="1" source="zEvsNkEJzdcjlOM2abnc-59" target="zEvsNkEJzdcjlOM2abnc-61">
          <mxGeometry relative="1" as="geometry"/>
        </mxCell>
        <mxCell id="zEvsNkEJzdcjlOM2abnc-74" style="edgeStyle=orthogonalEdgeStyle;rounded=0;orthogonalLoop=1;jettySize=auto;html=1;exitX=0.5;exitY=1;exitDx=0;exitDy=0;entryX=0.5;entryY=0;entryDx=0;entryDy=0;" edge="1" parent="1" source="zEvsNkEJzdcjlOM2abnc-59" target="zEvsNkEJzdcjlOM2abnc-64">
          <mxGeometry relative="1" as="geometry"/>
        </mxCell>
        <mxCell id="zEvsNkEJzdcjlOM2abnc-59" value="是否合格？" style="rhombus;whiteSpace=wrap;html=1;" vertex="1" parent="1">
          <mxGeometry x="261" y="490" width="120" height="80" as="geometry"/>
        </mxCell>
        <mxCell id="zEvsNkEJzdcjlOM2abnc-76" style="edgeStyle=orthogonalEdgeStyle;rounded=0;orthogonalLoop=1;jettySize=auto;html=1;exitX=0.5;exitY=1;exitDx=0;exitDy=0;entryX=0.5;entryY=0;entryDx=0;entryDy=0;" edge="1" parent="1" source="zEvsNkEJzdcjlOM2abnc-75" target="zEvsNkEJzdcjlOM2abnc-65">
          <mxGeometry relative="1" as="geometry"/>
        </mxCell>
        <mxCell id="zEvsNkEJzdcjlOM2abnc-75" value="终审员领取任务" style="rounded=1;whiteSpace=wrap;html=1;" vertex="1" parent="1">
          <mxGeometry x="261" y="680" width="120" height="60" as="geometry"/>
        </mxCell>
        <mxCell id="zEvsNkEJzdcjlOM2abnc-83" style="edgeStyle=orthogonalEdgeStyle;rounded=0;orthogonalLoop=1;jettySize=auto;html=1;exitX=1;exitY=0.5;exitDx=0;exitDy=0;entryX=0;entryY=0.5;entryDx=0;entryDy=0;" edge="1" parent="1" source="zEvsNkEJzdcjlOM2abnc-77" target="zEvsNkEJzdcjlOM2abnc-66">
          <mxGeometry relative="1" as="geometry"/>
        </mxCell>
        <mxCell id="zEvsNkEJzdcjlOM2abnc-77" value="不合格的审核任务" style="rounded=1;whiteSpace=wrap;html=1;" vertex="1" parent="1">
          <mxGeometry x="70" y="310" width="120" height="60" as="geometry"/>
        </mxCell>
      </root>
    </mxGraphModel>
  </diagram>
</mxfile>
